<svg width="123" height="123" viewBox="0 0 123 123" fill="none" xmlns="http://www.w3.org/2000/svg">
<g id="SVG" opacity="0.9">
<g id="Group">
<path id="Vector" d="M122.473 78.0409C123.588 62.498 97.3185 47.9227 63.7987 45.4861C30.2788 43.0495 2.20177 53.6742 1.08694 69.2171C-0.0278821 84.76 26.2417 99.3353 59.7615 101.772C93.2814 104.209 121.358 93.5838 122.473 78.0409Z" stroke="url(#paint0_linear_1_56)" stroke-width="0.97688" stroke-miterlimit="10"/>
<path id="Vector_2" d="M120.243 74.7961C120.68 59.6 94.463 46.5059 61.6848 45.5495C28.9067 44.5933 1.97996 56.1368 1.54251 71.3331C1.10505 86.5292 27.3224 99.6233 60.1006 100.58C92.8789 101.536 119.806 89.9922 120.243 74.7961Z" stroke="url(#paint1_linear_1_56)" stroke-width="0.97688" stroke-miterlimit="10"/>
<path id="Vector_3" d="M60.4604 99.4027C92.4915 98.8792 118.264 86.4154 118.024 71.5639C117.785 56.7125 91.6242 45.0973 59.5932 45.6208C27.562 46.1443 1.78977 58.608 2.02924 73.4596C2.26873 88.3109 28.4292 99.9261 60.4604 99.4027Z" stroke="url(#paint2_linear_1_56)" stroke-width="0.97688" stroke-miterlimit="10"/>
<path id="Vector_4" d="M60.8084 98.2157C92.0959 96.212 116.716 82.8277 115.8 68.321C114.883 53.8142 88.7763 43.6786 57.4887 45.6823C26.2012 47.6861 1.58075 61.0705 2.49745 75.5771C3.41415 90.0838 29.5209 100.219 60.8084 98.2157Z" stroke="url(#paint3_linear_1_56)" stroke-width="0.97688" stroke-miterlimit="10"/>
<path id="Vector_5" d="M61.1465 97.0339C91.694 93.5518 115.167 79.2502 113.574 65.0903C111.981 50.9304 85.9267 42.2742 55.3791 45.7563C24.8316 49.2384 1.35887 63.5401 2.95148 77.7C4.5441 91.8598 30.5988 100.516 61.1465 97.0339Z" stroke="url(#paint4_linear_1_56)" stroke-width="0.97688" stroke-miterlimit="10"/>
<path id="Vector_6" d="M61.4803 95.8605C91.2824 90.899 113.602 75.6754 111.332 61.8576C109.062 48.0396 83.0625 40.8602 53.2605 45.8215C23.4584 50.7829 1.13917 66.0066 3.40899 79.8245C5.67881 93.6423 31.6783 100.822 61.4803 95.8605Z" stroke="url(#paint5_linear_1_56)" stroke-width="0.97688" stroke-miterlimit="10"/>
<path id="Vector_7" d="M61.8287 94.6734C90.8888 88.2305 112.058 72.0882 109.111 58.6185C106.165 45.1489 80.2179 39.4525 51.158 45.8954C22.0978 52.3383 0.928767 68.4805 3.87541 81.9502C6.82206 95.4199 32.7687 101.116 61.8287 94.6734Z" stroke="url(#paint6_linear_1_56)" stroke-width="0.97688" stroke-miterlimit="10"/>
<path id="Vector_8" d="M62.1703 93.4959C90.4844 85.5748 110.5 68.5119 106.877 55.3846C103.253 42.2574 77.3622 38.0369 49.0481 45.9579C20.7338 53.8788 0.718144 70.9419 4.34173 84.0691C7.96532 97.1964 33.856 101.417 62.1703 93.4959Z" stroke="url(#paint7_linear_1_56)" stroke-width="0.97688" stroke-miterlimit="10"/>
<path id="Vector_9" d="M62.5216 92.2995C90.0896 82.8948 108.951 64.9111 104.649 52.1316C100.347 39.3522 74.5118 36.6165 46.9439 46.0213C19.3758 55.4259 0.514673 73.4097 4.81635 86.1891C9.11804 98.9684 34.9535 101.704 62.5216 92.2995Z" stroke="url(#paint8_linear_1_56)" stroke-width="0.97688" stroke-miterlimit="10"/>
<path id="Vector_10" d="M62.8689 91.1207C89.6955 80.2366 107.407 61.3328 102.429 48.8976C97.451 36.4624 71.6682 35.2049 44.8416 46.0889C18.015 56.9728 0.303256 75.8768 5.28137 88.312C10.2595 100.747 36.0423 102.005 62.8689 91.1207Z" stroke="url(#paint9_linear_1_56)" stroke-width="0.97688" stroke-miterlimit="10"/>
<path id="Vector_11" d="M63.2109 89.948C89.2938 77.5863 105.854 57.7618 100.198 45.6687C94.5431 33.5755 68.8144 33.7931 42.7316 46.1548C16.6488 58.5164 0.0889332 78.3409 5.74416 90.434C11.3994 102.527 37.1281 102.31 63.2109 89.948Z" stroke="url(#paint10_linear_1_56)" stroke-width="0.97688" stroke-miterlimit="10"/>
<path id="Vector_12" d="M63.5607 88.757C88.8981 74.9133 104.304 54.1674 97.9709 42.4198C91.6377 30.6722 65.9634 32.3715 40.6258 46.2151C15.2884 60.0588 -0.117653 80.8047 6.21561 92.5523C12.5489 104.3 38.2231 102.601 63.5607 88.757Z" stroke="url(#paint11_linear_1_56)" stroke-width="0.97688" stroke-miterlimit="10"/>
<path id="Vector_13" d="M63.901 87.5768C88.4959 72.2548 102.753 50.5917 95.7451 39.1911C88.7372 27.7904 63.118 30.9691 38.523 46.2911C13.928 61.6131 -0.329012 83.2761 6.67893 94.6769C13.6869 106.078 39.3061 102.899 63.901 87.5768Z" stroke="url(#paint12_linear_1_56)" stroke-width="0.97688" stroke-miterlimit="10"/>
<path id="Vector_14" d="M64.2498 86.3834C88.1002 69.5773 101.204 46.9919 93.5184 35.9377C85.8324 24.8833 60.2673 29.5461 36.4169 46.3521C12.5665 63.1582 -0.537478 85.7436 7.14839 96.7978C14.8343 107.852 40.3994 103.189 64.2498 86.3834Z" stroke="url(#paint13_linear_1_56)" stroke-width="0.97688" stroke-miterlimit="10"/>
<path id="Vector_15" d="M64.5854 85.1924C87.6925 66.9066 99.6443 43.3995 91.2805 32.688C82.9165 21.9767 57.4043 28.1168 34.2972 46.4027C11.19 64.6886 -0.761766 88.1956 7.6021 98.9071C15.966 109.618 41.4782 103.478 64.5854 85.1924Z" stroke="url(#paint14_linear_1_56)" stroke-width="0.97688" stroke-miterlimit="10"/>
<path id="Vector_16" d="M64.9227 84.0173C87.2878 64.2511 98.0911 39.8249 89.0523 29.4599C80.0136 19.095 54.5558 26.7163 32.1906 46.4825C9.82533 66.2488 -0.977894 90.6749 8.06086 101.04C17.0996 111.405 42.5575 103.784 64.9227 84.0173Z" stroke="url(#paint15_linear_1_56)" stroke-width="0.97688" stroke-miterlimit="10"/>
<path id="Vector_17" d="M65.2657 82.8305C86.884 61.5851 96.5335 36.2404 86.8185 26.2216C77.1034 16.203 51.7027 25.3041 30.0843 46.5495C8.46596 67.795 -1.18355 93.1396 8.53151 103.158C18.2466 113.177 43.6473 104.076 65.2657 82.8305Z" stroke="url(#paint16_linear_1_56)" stroke-width="0.97688" stroke-miterlimit="10"/>
<path id="Vector_18" d="M65.6113 81.6482C86.4865 58.9219 94.9841 32.6554 84.5912 22.9805C74.1983 13.3055 48.8505 23.8856 27.9752 46.612C7.10001 69.3383 -1.39757 95.6048 8.99535 105.28C19.3882 114.955 44.7361 104.375 65.6113 81.6482Z" stroke="url(#paint17_linear_1_56)" stroke-width="0.97688" stroke-miterlimit="10"/>
<path id="Vector_19" d="M65.9515 80.4635C86.0839 56.2581 93.4328 29.073 82.3655 19.744C71.2983 10.415 46.0059 22.4747 25.8734 46.6803C5.74084 70.8856 -1.608 98.0708 9.45925 107.4C20.5265 116.729 45.8189 104.669 65.9515 80.4635Z" stroke="url(#paint18_linear_1_56)" stroke-width="0.97688" stroke-miterlimit="10"/>
<path id="Vector_20" d="M66.2951 79.2729C85.6824 53.5875 91.8786 25.4825 80.1346 16.4988C68.3905 7.51496 43.1536 21.0542 23.7661 46.7397C4.37884 72.4251 -1.81729 100.53 9.92674 109.514C21.6707 118.498 46.9077 104.958 66.2951 79.2729Z" stroke="url(#paint19_linear_1_56)" stroke-width="0.97688" stroke-miterlimit="10"/>
<path id="Vector_21" d="M66.6401 78.0891C85.2823 50.925 90.3258 21.901 77.9051 13.2621C65.4846 4.62333 40.3032 19.641 21.6611 46.8051C3.01898 73.9692 -2.02454 102.993 10.3961 111.632C22.8167 120.271 47.998 105.253 66.6401 78.0891Z" stroke="url(#paint20_linear_1_56)" stroke-width="0.97688" stroke-miterlimit="10"/>
<path id="Vector_22" d="M66.9854 76.9253C84.8887 48.2823 88.7844 18.3366 75.6867 10.0396C62.5891 1.74259 37.4578 18.2363 19.5545 46.8793C1.6511 75.5223 -2.24464 105.468 10.8531 113.765C23.9508 122.062 49.082 105.568 66.9854 76.9253Z" stroke="url(#paint21_linear_1_56)" stroke-width="0.97688" stroke-miterlimit="10"/>
</g>
</g>
<defs>
<linearGradient id="paint0_linear_1_56" x1="29.8682" y1="50.5587" x2="29.6826" y2="103.249" gradientUnits="userSpaceOnUse">
<stop stop-color="#E24C4A"/>
<stop offset="1" stop-color="#386BB7"/>
</linearGradient>
<linearGradient id="paint1_linear_1_56" x1="28.8201" y1="51.9294" x2="30.8686" y2="103.291" gradientUnits="userSpaceOnUse">
<stop stop-color="#E24C4A"/>
<stop offset="1" stop-color="#386BB7"/>
</linearGradient>
<linearGradient id="paint2_linear_1_56" x1="102.33" y1="57.0215" x2="4.45291" y2="90.2562" gradientUnits="userSpaceOnUse">
<stop stop-color="#E24C4A"/>
<stop offset="1" stop-color="#386BB7"/>
</linearGradient>
<linearGradient id="paint3_linear_1_56" x1="99.7892" y1="54.8363" x2="5.62077" y2="91.8381" gradientUnits="userSpaceOnUse">
<stop stop-color="#E24C4A"/>
<stop offset="1" stop-color="#386BB7"/>
</linearGradient>
<linearGradient id="paint4_linear_1_56" x1="97.2474" y1="52.6643" x2="6.77679" y2="93.4425" gradientUnits="userSpaceOnUse">
<stop stop-color="#E24C4A"/>
<stop offset="1" stop-color="#386BB7"/>
</linearGradient>
<linearGradient id="paint5_linear_1_56" x1="94.6902" y1="50.4862" x2="7.92309" y2="95.0331" gradientUnits="userSpaceOnUse">
<stop stop-color="#E24C4A"/>
<stop offset="1" stop-color="#386BB7"/>
</linearGradient>
<linearGradient id="paint6_linear_1_56" x1="92.1534" y1="48.3089" x2="9.09191" y2="96.653" gradientUnits="userSpaceOnUse">
<stop stop-color="#E24C4A"/>
<stop offset="1" stop-color="#386BB7"/>
</linearGradient>
<linearGradient id="paint7_linear_1_56" x1="89.6042" y1="46.1294" x2="10.2449" y2="98.2532" gradientUnits="userSpaceOnUse">
<stop stop-color="#E24C4A"/>
<stop offset="1" stop-color="#386BB7"/>
</linearGradient>
<linearGradient id="paint8_linear_1_56" x1="87.0613" y1="43.9389" x2="11.4208" y2="99.874" gradientUnits="userSpaceOnUse">
<stop stop-color="#E24C4A"/>
<stop offset="1" stop-color="#386BB7"/>
</linearGradient>
<linearGradient id="paint9_linear_1_56" x1="84.5253" y1="41.7614" x2="12.585" y2="101.504" gradientUnits="userSpaceOnUse">
<stop stop-color="#E24C4A"/>
<stop offset="1" stop-color="#386BB7"/>
</linearGradient>
<linearGradient id="paint10_linear_1_56" x1="81.9789" y1="39.5862" x2="13.7418" y2="103.133" gradientUnits="userSpaceOnUse">
<stop stop-color="#E24C4A"/>
<stop offset="1" stop-color="#386BB7"/>
</linearGradient>
<linearGradient id="paint11_linear_1_56" x1="79.4356" y1="37.3968" x2="14.9211" y2="104.769" gradientUnits="userSpaceOnUse">
<stop stop-color="#E24C4A"/>
<stop offset="1" stop-color="#386BB7"/>
</linearGradient>
<linearGradient id="paint12_linear_1_56" x1="76.8959" y1="35.227" x2="16.1043" y2="106.423" gradientUnits="userSpaceOnUse">
<stop stop-color="#E24C4A"/>
<stop offset="1" stop-color="#386BB7"/>
</linearGradient>
<linearGradient id="paint13_linear_1_56" x1="74.3531" y1="33.0347" x2="17.2999" y2="108.074" gradientUnits="userSpaceOnUse">
<stop stop-color="#E24C4A"/>
<stop offset="1" stop-color="#386BB7"/>
</linearGradient>
<linearGradient id="paint14_linear_1_56" x1="71.7984" y1="30.8409" x2="18.4759" y2="109.711" gradientUnits="userSpaceOnUse">
<stop stop-color="#E24C4A"/>
<stop offset="1" stop-color="#386BB7"/>
</linearGradient>
<linearGradient id="paint15_linear_1_56" x1="69.2561" y1="28.6722" x2="19.6794" y2="111.382" gradientUnits="userSpaceOnUse">
<stop stop-color="#E24C4A"/>
<stop offset="1" stop-color="#386BB7"/>
</linearGradient>
<linearGradient id="paint16_linear_1_56" x1="66.7088" y1="26.4926" x2="20.8927" y2="113.032" gradientUnits="userSpaceOnUse">
<stop stop-color="#E24C4A"/>
<stop offset="1" stop-color="#386BB7"/>
</linearGradient>
<linearGradient id="paint17_linear_1_56" x1="64.1648" y1="24.3083" x2="22.1041" y2="114.684" gradientUnits="userSpaceOnUse">
<stop stop-color="#E24C4A"/>
<stop offset="1" stop-color="#386BB7"/>
</linearGradient>
<linearGradient id="paint18_linear_1_56" x1="61.6257" y1="22.1303" x2="23.332" y2="116.337" gradientUnits="userSpaceOnUse">
<stop stop-color="#E24C4A"/>
<stop offset="1" stop-color="#386BB7"/>
</linearGradient>
<linearGradient id="paint19_linear_1_56" x1="59.0801" y1="19.9431" x2="24.5613" y2="117.977" gradientUnits="userSpaceOnUse">
<stop stop-color="#E24C4A"/>
<stop offset="1" stop-color="#386BB7"/>
</linearGradient>
<linearGradient id="paint20_linear_1_56" x1="56.5364" y1="17.7637" x2="25.7955" y2="119.619" gradientUnits="userSpaceOnUse">
<stop stop-color="#E24C4A"/>
<stop offset="1" stop-color="#386BB7"/>
</linearGradient>
<linearGradient id="paint21_linear_1_56" x1="53.9999" y1="15.5952" x2="27.0209" y2="121.275" gradientUnits="userSpaceOnUse">
<stop stop-color="#E24C4A"/>
<stop offset="1" stop-color="#386BB7"/>
</linearGradient>
</defs>
</svg>
